<svg width="275.37" height="21.48" viewBox="0 0 275.37 21.48" xmlns="http://www.w3.org/2000/svg"><g id="svgGroup" stroke-linecap="round" fill-rule="evenodd" font-size="9pt" stroke="#700000" stroke-width="0.25mm" fill="#700000" style="stroke:#700000;stroke-width:0.25mm;fill:#700000"><path d="M 40.68 21.24 L 40.68 0.24 L 44.37 0.24 L 54.45 14.52 L 54.45 0.24 L 58.5 0.24 L 58.5 21.24 L 54.81 21.24 L 44.73 6.96 L 44.73 21.24 L 40.68 21.24 Z M 117.03 21.24 L 117.03 0.24 L 120.72 0.24 L 130.8 14.52 L 130.8 0.24 L 134.85 0.24 L 134.85 21.24 L 131.16 21.24 L 121.08 6.96 L 121.08 21.24 L 117.03 21.24 Z M 165.21 21.24 L 165.21 0.24 L 168.9 0.24 L 178.98 14.52 L 178.98 0.24 L 183.03 0.24 L 183.03 21.24 L 179.34 21.24 L 169.26 6.96 L 169.26 21.24 L 165.21 21.24 Z M 61.5 14.49 L 65.58 14.49 A 4.933 4.933 0 0 0 65.673 15.478 Q 65.852 16.353 66.375 16.935 A 2.606 2.606 0 0 0 67.894 17.761 A 3.824 3.824 0 0 0 68.58 17.82 L 71.91 17.82 A 5.148 5.148 0 0 0 72.795 17.749 Q 73.526 17.621 74.055 17.265 Q 74.88 16.71 74.88 15.78 L 74.88 14.76 A 1.525 1.525 0 0 0 74.08 13.382 Q 73.777 13.199 73.358 13.074 A 5.319 5.319 0 0 0 72.72 12.93 L 67.2 12 A 11.836 11.836 0 0 1 65.569 11.616 Q 64.042 11.132 63.105 10.275 A 4.179 4.179 0 0 1 61.714 7.235 A 5.462 5.462 0 0 1 61.71 7.02 L 61.71 5.34 A 5.006 5.006 0 0 1 62.011 3.584 A 4.597 4.597 0 0 1 62.565 2.535 A 5.131 5.131 0 0 1 64.166 1.075 A 6.643 6.643 0 0 1 64.995 0.66 A 8.263 8.263 0 0 1 66.923 0.127 A 11.151 11.151 0 0 1 68.64 0 L 72.03 0 A 7.987 7.987 0 0 1 73.921 0.216 A 6.493 6.493 0 0 1 75.48 0.81 Q 76.98 1.62 77.805 3.075 Q 78.63 4.53 78.63 6.45 L 74.55 6.45 A 3.735 3.735 0 0 0 74.453 5.576 A 2.59 2.59 0 0 0 73.86 4.425 A 2.281 2.281 0 0 0 72.308 3.672 A 3.162 3.162 0 0 0 72.03 3.66 L 68.64 3.66 Q 67.677 3.66 67.003 3.976 A 2.535 2.535 0 0 0 66.615 4.2 A 1.905 1.905 0 0 0 66.134 4.677 Q 65.85 5.092 65.85 5.64 L 65.85 6.45 A 1.573 1.573 0 0 0 66.637 7.867 Q 66.939 8.055 67.357 8.18 A 4.914 4.914 0 0 0 67.92 8.31 L 73.41 9.27 A 13.216 13.216 0 0 1 75.063 9.664 Q 75.886 9.922 76.545 10.273 A 5.897 5.897 0 0 1 77.58 10.965 A 3.879 3.879 0 0 1 79.01 13.79 A 4.9 4.9 0 0 1 79.02 14.1 L 79.02 16.08 Q 79.02 17.67 78.135 18.9 A 5.401 5.401 0 0 1 76.455 20.407 A 6.903 6.903 0 0 1 75.66 20.805 A 8.256 8.256 0 0 1 73.71 21.351 A 11.195 11.195 0 0 1 71.97 21.48 L 68.52 21.48 A 9.513 9.513 0 0 1 66.421 21.262 Q 64.926 20.924 63.84 20.061 A 5.823 5.823 0 0 1 63.36 19.635 A 6.047 6.047 0 0 1 61.762 16.761 Q 61.5 15.728 61.5 14.49 Z M 213.57 18.42 L 213.57 0.24 L 229.59 0.24 L 229.59 3.84 L 217.71 3.84 L 217.71 8.7 L 228.69 8.7 L 228.69 12.3 L 217.71 12.3 L 217.71 17.64 L 229.59 17.64 L 229.59 21.24 L 216.48 21.24 A 3.477 3.477 0 0 1 215.515 21.113 A 2.68 2.68 0 0 1 214.38 20.46 A 2.609 2.609 0 0 1 213.59 18.803 A 3.596 3.596 0 0 1 213.57 18.42 Z M 18.12 21.24 L 13.08 21.24 L 6.15 12.42 L 4.14 14.58 L 4.14 21.24 L 0 21.24 L 0 0.24 L 4.14 0.24 L 4.14 9.3 L 12.48 0.24 L 17.58 0.24 L 8.94 9.45 L 18.12 21.24 Z M 251.55 21.24 L 251.55 19.2 L 262.68 3.78 L 252.09 3.78 L 252.09 0.24 L 268.41 0.24 L 268.41 2.28 L 257.22 17.7 L 268.11 17.7 L 268.11 21.24 L 251.55 21.24 Z M 232.41 21.24 L 232.41 0.24 L 243.57 0.24 A 8.238 8.238 0 0 1 245.467 0.447 A 5.679 5.679 0 0 1 247.965 1.71 Q 249.63 3.18 249.63 5.58 L 249.63 7.68 A 4.62 4.62 0 0 1 249.358 9.286 A 4.194 4.194 0 0 1 248.745 10.395 Q 247.86 11.55 246.18 12.15 L 246.18 12.21 A 5.492 5.492 0 0 1 246.972 12.835 A 4.08 4.08 0 0 1 247.635 13.65 A 6.974 6.974 0 0 1 247.974 14.282 Q 248.295 14.955 248.61 15.9 L 250.29 21.24 L 246 21.24 L 244.41 16.26 Q 244.133 15.343 243.704 14.759 A 2.853 2.853 0 0 0 243.33 14.34 Q 242.64 13.71 241.62 13.71 L 236.55 13.71 L 236.55 21.24 L 232.41 21.24 Z M 86.58 21.24 L 86.58 3.84 L 79.92 3.84 L 79.92 0.24 L 97.38 0.24 L 97.38 3.84 L 90.72 3.84 L 90.72 21.24 L 86.58 21.24 Z M 143.73 21.24 L 143.73 3.84 L 137.07 3.84 L 137.07 0.24 L 154.53 0.24 L 154.53 3.84 L 147.87 3.84 L 147.87 21.24 L 143.73 21.24 Z M 200.55 21.24 L 200.55 3.84 L 193.89 3.84 L 193.89 0.24 L 211.35 0.24 L 211.35 3.84 L 204.69 3.84 L 204.69 21.24 L 200.55 21.24 Z M 110.73 21.24 L 108.9 16.35 L 101.04 16.35 L 99.18 21.24 L 94.86 21.24 L 103.08 0.24 L 104.94 0.24 A 3.227 3.227 0 0 1 106.011 0.407 Q 107.1 0.789 107.58 2.04 L 115.05 21.24 L 110.73 21.24 Z M 18.36 13.44 L 18.36 8.04 A 9.702 9.702 0 0 1 18.609 5.795 A 7.728 7.728 0 0 1 19.365 3.825 Q 20.37 2.01 22.185 1.005 A 8.012 8.012 0 0 1 25.081 0.08 A 10.175 10.175 0 0 1 26.37 0 L 29.55 0 A 9.491 9.491 0 0 1 31.847 0.267 A 7.731 7.731 0 0 1 33.735 1.005 Q 35.55 2.01 36.555 3.825 Q 37.56 5.64 37.56 8.04 L 37.56 13.44 A 9.702 9.702 0 0 1 37.311 15.686 A 7.728 7.728 0 0 1 36.555 17.655 Q 35.55 19.47 33.735 20.475 A 8.012 8.012 0 0 1 30.839 21.401 A 10.175 10.175 0 0 1 29.55 21.48 L 26.37 21.48 A 9.491 9.491 0 0 1 24.073 21.213 A 7.731 7.731 0 0 1 22.185 20.475 Q 20.37 19.47 19.365 17.655 Q 18.36 15.84 18.36 13.44 Z M 157.05 21.24 L 157.05 0.24 L 161.19 0.24 L 161.19 21.24 L 157.05 21.24 Z M 271.23 21.24 L 271.23 0.24 L 275.37 0.24 L 275.37 21.24 L 271.23 21.24 Z M 26.37 17.82 L 29.55 17.82 A 3.89 3.89 0 0 0 30.921 17.588 A 3.433 3.433 0 0 0 32.355 16.56 A 4.368 4.368 0 0 0 33.27 14.68 A 6.37 6.37 0 0 0 33.42 13.26 L 33.42 8.22 A 6.37 6.37 0 0 0 33.27 6.8 A 4.368 4.368 0 0 0 32.355 4.92 Q 31.29 3.66 29.55 3.66 L 26.37 3.66 A 3.89 3.89 0 0 0 24.999 3.893 A 3.433 3.433 0 0 0 23.565 4.92 A 4.368 4.368 0 0 0 22.65 6.8 A 6.37 6.37 0 0 0 22.5 8.22 L 22.5 13.26 A 6.37 6.37 0 0 0 22.65 14.68 A 4.368 4.368 0 0 0 23.565 16.56 Q 24.63 17.82 26.37 17.82 Z M 236.55 10.14 L 242.79 10.14 A 3.801 3.801 0 0 0 243.592 10.06 Q 244.298 9.908 244.77 9.465 A 2.245 2.245 0 0 0 245.481 7.942 A 3.052 3.052 0 0 0 245.49 7.71 L 245.49 5.76 Q 245.49 4.89 244.95 4.365 A 1.813 1.813 0 0 0 244.013 3.886 A 2.605 2.605 0 0 0 243.51 3.84 L 236.55 3.84 L 236.55 10.14 Z M 104.97 5.31 L 102.15 12.87 L 107.79 12.87 L 105 5.31 L 104.97 5.31 Z" vector-effect="non-scaling-stroke"/></g></svg>