<?xml version="1.0" encoding="iso-8859-1"?>
<!-- Uploaded to: SVG Repo, www.svgrepo.com, Generator: SVG Repo Mixer Tools -->
<svg fill="#303030" height="80px" width="80px" version="1.1" id="Layer_1" xmlns="http://www.w3.org/2000/svg" xmlns:xlink="http://www.w3.org/1999/xlink" 
	 viewBox="0 0 512 512" xml:space="preserve">
<g>
	<g>
		<path d="M115.2,68.267V76.8c-5.12,0-8.533,3.413-8.533,8.533v8.533c0,5.12,3.413,8.533,8.533,8.533v8.533
			c-5.12,0-8.533,3.413-8.533,8.533V128c0,5.12,3.413,8.533,8.533,8.533v8.533c-5.12,0-8.533,3.413-8.533,8.533v8.533
			c0,5.12,3.413,8.533,8.533,8.533v256h290.133v-358.4H115.2z M351.573,316.587l-8.533,8.533
			c-11.093,11.093-23.893,17.067-37.547,17.067c-3.413,0-7.68-0.853-11.947-1.707c-14.507-3.413-29.867-12.8-45.227-29.013
			l-47.787-48.64c-46.933-46.933-29.013-79.36-13.653-94.72l8.533-8.533c6.827-6.827,17.067-8.533,25.6-3.413
			c13.653,6.827,27.307,29.867,29.013,32.427c3.413,5.12,4.267,11.093,2.56,16.213c-0.853,4.267-3.413,6.827-6.827,9.387
			c-3.413,2.56-7.68,6.827-8.533,7.68c-3.413,5.12-3.413,8.533,1.707,13.653l37.547,37.547c5.12,5.12,11.093,5.12,20.48-6.827
			c2.56-3.413,5.12-5.973,9.387-6.827c5.12-1.707,11.093-0.853,16.213,2.56c2.56,1.707,25.6,15.36,32.427,29.013
			C359.253,299.52,357.547,309.76,351.573,316.587z"/>
	</g>
</g>
<g>
	<g>
		<path d="M260.267,452.267c-9.387,0-17.067,7.68-17.067,17.067s7.68,17.067,17.067,17.067s17.067-7.68,17.067-17.067
			S269.653,452.267,260.267,452.267z"/>
	</g>
</g>
<g>
	<g>
		<path d="M340.48,298.667c-3.413-6.827-17.92-17.067-25.6-22.187c-1.707-0.853-3.413,0-3.413,0
			c-8.533,10.24-10.24,11.093-11.093,11.947c-11.947,8.533-24.747,6.827-35.84-3.413l-38.4-37.547
			c-10.24-10.24-11.947-23.04-3.413-35.84c0.853-0.853,1.707-2.56,11.947-11.093l0.853-0.853c0,0,0-0.853-0.853-2.56
			c-5.12-7.68-14.507-22.187-22.187-25.6c-0.853,0-4.267,0-5.12,0.853l-8.533,8.533c-6.827,6.827-29.013,29.013,12.8,70.827
			l48.64,47.787c13.653,13.653,25.6,21.333,37.547,23.893c11.947,2.56,23.04-0.853,33.28-11.093l8.533-8.533
			C341.333,302.08,341.333,300.373,340.48,298.667z"/>
	</g>
</g>
<g>
	<g>
		<path d="M371.2,0H149.333C130.56,0,115.2,15.36,115.2,34.133V51.2h290.133V34.133C405.333,15.36,389.973,0,371.2,0z
			 M226.133,34.133H217.6c-5.12,0-8.533-3.413-8.533-8.533s3.413-8.533,8.533-8.533h8.533c5.12,0,8.533,3.413,8.533,8.533
			S231.253,34.133,226.133,34.133z M294.4,34.133h-42.667c-5.12,0-8.533-3.413-8.533-8.533s3.413-8.533,8.533-8.533H294.4
			c5.12,0,8.533,3.413,8.533,8.533S299.52,34.133,294.4,34.133z"/>
	</g>
</g>
<g>
	<g>
		<path d="M282.453,443.733c7.68,5.973,11.947,15.36,11.947,25.6c0,18.773-15.36,34.133-34.133,34.133s-34.133-15.36-34.133-34.133
			c0-10.24,4.267-19.627,11.947-25.6H115.2v34.133c0,18.773,15.36,34.133,34.133,34.133H371.2c18.773,0,34.133-15.36,34.133-34.133
			v-34.133H282.453z"/>
	</g>
</g>
</svg>