<svg width="137.685" height="10.74" viewBox="0 0 137.685 10.74" xmlns="http://www.w3.org/2000/svg"><g id="svgGroup" stroke-linecap="round" fill-rule="evenodd" font-size="9pt" stroke="#f5f5f5" stroke-width="0.25mm" fill="#f5f5f5" style="stroke:#f5f5f5;stroke-width:0.25mm;fill:#f5f5f5"><path d="M 20.34 10.62 L 20.34 0.12 L 22.185 0.12 L 27.225 7.26 L 27.225 0.12 L 29.25 0.12 L 29.25 10.62 L 27.405 10.62 L 22.365 3.48 L 22.365 10.62 L 20.34 10.62 Z M 58.515 10.62 L 58.515 0.12 L 60.36 0.12 L 65.4 7.26 L 65.4 0.12 L 67.425 0.12 L 67.425 10.62 L 65.58 10.62 L 60.54 3.48 L 60.54 10.62 L 58.515 10.62 Z M 82.605 10.62 L 82.605 0.12 L 84.45 0.12 L 89.49 7.26 L 89.49 0.12 L 91.515 0.12 L 91.515 10.62 L 89.67 10.62 L 84.63 3.48 L 84.63 10.62 L 82.605 10.62 Z M 30.75 7.245 L 32.79 7.245 A 2.467 2.467 0 0 0 32.836 7.739 Q 32.898 8.038 33.039 8.269 A 1.367 1.367 0 0 0 33.187 8.468 Q 33.585 8.91 34.29 8.91 L 35.955 8.91 Q 36.483 8.91 36.852 8.733 A 1.396 1.396 0 0 0 37.027 8.633 A 1.014 1.014 0 0 0 37.275 8.404 A 0.829 0.829 0 0 0 37.44 7.89 L 37.44 7.38 A 0.763 0.763 0 0 0 37.04 6.691 Q 36.888 6.599 36.679 6.537 A 2.66 2.66 0 0 0 36.36 6.465 L 33.6 6 Q 32.25 5.775 31.552 5.138 A 2.09 2.09 0 0 1 30.857 3.617 A 2.731 2.731 0 0 1 30.855 3.51 L 30.855 2.67 A 2.503 2.503 0 0 1 31.006 1.792 A 2.298 2.298 0 0 1 31.283 1.268 A 2.566 2.566 0 0 1 32.083 0.538 A 3.322 3.322 0 0 1 32.497 0.33 A 4.132 4.132 0 0 1 33.462 0.063 A 5.576 5.576 0 0 1 34.32 0 L 36.015 0 Q 36.99 0 37.74 0.405 Q 38.49 0.81 38.902 1.538 A 3.159 3.159 0 0 1 39.281 2.69 A 4.044 4.044 0 0 1 39.315 3.225 L 37.275 3.225 A 1.868 1.868 0 0 0 37.227 2.788 A 1.295 1.295 0 0 0 36.93 2.213 A 1.14 1.14 0 0 0 36.154 1.836 A 1.581 1.581 0 0 0 36.015 1.83 L 34.32 1.83 A 2.408 2.408 0 0 0 33.916 1.862 Q 33.687 1.901 33.502 1.988 A 1.267 1.267 0 0 0 33.308 2.1 A 0.953 0.953 0 0 0 33.067 2.338 Q 32.927 2.543 32.925 2.812 A 1.049 1.049 0 0 0 32.925 2.82 L 32.925 3.225 A 0.787 0.787 0 0 0 33.319 3.933 Q 33.47 4.028 33.679 4.09 A 2.457 2.457 0 0 0 33.96 4.155 L 36.705 4.635 A 6.608 6.608 0 0 1 37.531 4.832 Q 37.943 4.961 38.273 5.136 A 2.949 2.949 0 0 1 38.79 5.483 A 1.94 1.94 0 0 1 39.505 6.895 A 2.45 2.45 0 0 1 39.51 7.05 L 39.51 8.04 Q 39.51 8.835 39.067 9.45 A 2.701 2.701 0 0 1 38.227 10.204 A 3.452 3.452 0 0 1 37.83 10.403 A 4.128 4.128 0 0 1 36.855 10.675 A 5.597 5.597 0 0 1 35.985 10.74 L 34.26 10.74 Q 32.813 10.74 31.92 10.031 A 2.911 2.911 0 0 1 31.68 9.818 A 3.024 3.024 0 0 1 30.881 8.38 Q 30.758 7.897 30.751 7.324 A 5.763 5.763 0 0 1 30.75 7.245 Z M 106.785 9.21 L 106.785 0.12 L 114.795 0.12 L 114.795 1.92 L 108.855 1.92 L 108.855 4.35 L 114.345 4.35 L 114.345 6.15 L 108.855 6.15 L 108.855 8.82 L 114.795 8.82 L 114.795 10.62 L 108.24 10.62 A 1.739 1.739 0 0 1 107.758 10.556 A 1.34 1.34 0 0 1 107.19 10.23 A 1.305 1.305 0 0 1 106.795 9.402 A 1.798 1.798 0 0 1 106.785 9.21 Z M 9.06 10.62 L 6.54 10.62 L 3.075 6.21 L 2.07 7.29 L 2.07 10.62 L 0 10.62 L 0 0.12 L 2.07 0.12 L 2.07 4.65 L 6.24 0.12 L 8.79 0.12 L 4.47 4.725 L 9.06 10.62 Z M 125.775 10.62 L 125.775 9.6 L 131.34 1.89 L 126.045 1.89 L 126.045 0.12 L 134.205 0.12 L 134.205 1.14 L 128.61 8.85 L 134.055 8.85 L 134.055 10.62 L 125.775 10.62 Z M 116.205 10.62 L 116.205 0.12 L 121.785 0.12 Q 123.15 0.12 123.982 0.855 A 2.419 2.419 0 0 1 124.81 2.605 A 3.309 3.309 0 0 1 124.815 2.79 L 124.815 3.84 A 2.31 2.31 0 0 1 124.679 4.643 A 2.097 2.097 0 0 1 124.373 5.198 A 2.399 2.399 0 0 1 123.696 5.792 A 3.366 3.366 0 0 1 123.09 6.075 L 123.09 6.105 Q 123.57 6.42 123.818 6.825 A 3.487 3.487 0 0 1 123.987 7.141 Q 124.067 7.309 124.147 7.512 A 8.848 8.848 0 0 1 124.305 7.95 L 125.145 10.62 L 123 10.62 L 122.205 8.13 Q 122.01 7.485 121.665 7.17 A 1.196 1.196 0 0 0 120.92 6.859 A 1.568 1.568 0 0 0 120.81 6.855 L 118.275 6.855 L 118.275 10.62 L 116.205 10.62 Z M 43.29 10.62 L 43.29 1.92 L 39.96 1.92 L 39.96 0.12 L 48.69 0.12 L 48.69 1.92 L 45.36 1.92 L 45.36 10.62 L 43.29 10.62 Z M 71.865 10.62 L 71.865 1.92 L 68.535 1.92 L 68.535 0.12 L 77.265 0.12 L 77.265 1.92 L 73.935 1.92 L 73.935 10.62 L 71.865 10.62 Z M 100.275 10.62 L 100.275 1.92 L 96.945 1.92 L 96.945 0.12 L 105.675 0.12 L 105.675 1.92 L 102.345 1.92 L 102.345 10.62 L 100.275 10.62 Z M 55.365 10.62 L 54.45 8.175 L 50.52 8.175 L 49.59 10.62 L 47.43 10.62 L 51.54 0.12 L 52.47 0.12 Q 53.338 0.12 53.707 0.834 A 1.844 1.844 0 0 1 53.79 1.02 L 57.525 10.62 L 55.365 10.62 Z M 9.18 6.72 L 9.18 4.02 A 4.851 4.851 0 0 1 9.305 2.897 A 3.864 3.864 0 0 1 9.683 1.913 Q 10.185 1.005 11.093 0.503 A 4.006 4.006 0 0 1 12.54 0.04 A 5.088 5.088 0 0 1 13.185 0 L 14.775 0 Q 15.96 0 16.868 0.503 Q 17.775 1.005 18.277 1.913 A 3.989 3.989 0 0 1 18.731 3.299 A 5.141 5.141 0 0 1 18.78 4.02 L 18.78 6.72 A 4.851 4.851 0 0 1 18.655 7.843 A 3.864 3.864 0 0 1 18.277 8.828 Q 17.775 9.735 16.868 10.238 A 4.006 4.006 0 0 1 15.42 10.7 A 5.088 5.088 0 0 1 14.775 10.74 L 13.185 10.74 Q 12 10.74 11.093 10.238 Q 10.185 9.735 9.683 8.828 A 3.989 3.989 0 0 1 9.229 7.442 A 5.141 5.141 0 0 1 9.18 6.72 Z M 78.525 10.62 L 78.525 0.12 L 80.595 0.12 L 80.595 10.62 L 78.525 10.62 Z M 135.615 10.62 L 135.615 0.12 L 137.685 0.12 L 137.685 10.62 L 135.615 10.62 Z M 13.185 8.91 L 14.775 8.91 A 1.945 1.945 0 0 0 15.46 8.794 A 1.716 1.716 0 0 0 16.178 8.28 A 2.184 2.184 0 0 0 16.635 7.34 A 3.185 3.185 0 0 0 16.71 6.63 L 16.71 4.11 A 3.185 3.185 0 0 0 16.635 3.4 A 2.184 2.184 0 0 0 16.177 2.46 A 1.722 1.722 0 0 0 14.922 1.835 A 2.289 2.289 0 0 0 14.775 1.83 L 13.185 1.83 A 1.945 1.945 0 0 0 12.5 1.946 A 1.716 1.716 0 0 0 11.782 2.46 A 2.184 2.184 0 0 0 11.325 3.4 A 3.185 3.185 0 0 0 11.25 4.11 L 11.25 6.63 A 3.185 3.185 0 0 0 11.325 7.34 A 2.184 2.184 0 0 0 11.783 8.28 A 1.722 1.722 0 0 0 13.038 8.905 A 2.289 2.289 0 0 0 13.185 8.91 Z M 118.275 5.07 L 121.395 5.07 A 1.9 1.9 0 0 0 121.796 5.03 Q 122.061 4.973 122.26 4.834 A 1.121 1.121 0 0 0 122.385 4.733 A 1.122 1.122 0 0 0 122.741 3.971 A 1.526 1.526 0 0 0 122.745 3.855 L 122.745 2.88 A 1.136 1.136 0 0 0 122.705 2.569 A 0.855 0.855 0 0 0 122.475 2.183 A 0.907 0.907 0 0 0 122.006 1.943 A 1.302 1.302 0 0 0 121.755 1.92 L 118.275 1.92 L 118.275 5.07 Z M 52.485 2.655 L 51.075 6.435 L 53.895 6.435 L 52.5 2.655 L 52.485 2.655 Z" vector-effect="non-scaling-stroke"/></g></svg>